# xmcd
#
# Track frame offsets: 
#        150
#        16815
#        34402
#        51942
#        69905
#        87327
#        109767
#        128672
#        149227
#        170412
#        186982
#        203827
#
# Disc length: 2954 seconds
#
# Revision: 1
# Processed by: cddbd v1.5.2PL0 Copyright (c) Steve Scherf et al.
# Submitted via: ExactAudioCopy v0.95b4
#
DISCID=ad0b880c
DTITLE=Audrey Landers - Secrets
DYEAR=1988
DGENRE=Country
TTITLE0=Gone with the Wind
TTITLE1=Never wanna dance (when I'm blue)
TTITLE2=Amor, amor my love
TTITLE3=You can tame my heart
TTITLE4=We never lived a Romance
TTITLE5=Thru the Eyes of Winter
TTITLE6=Starship (we´re all alone)
TTITLE7=All of my heart
TTITLE8=It takes 2 to fly
TTITLE9=Chains of love
TTITLE10=Going out of my mind
TTITLE11=Silverbird
EXTD=
EXTT0=
EXTT1=
EXTT2=
EXTT3=
EXTT4=
EXTT5=
EXTT6=
EXTT7=
EXTT8=
EXTT9=
EXTT10=
EXTT11=
PLAYORDER=
